<svg width="133" height="100" viewBox="0 0 133 100" fill="none" xmlns="http://www.w3.org/2000/svg">
<path d="M11.0833 0H121.917C127.735 0 133 5.27778 133 11.1111V88.8889C133 94.7222 127.735 100 121.917 100H11.0833C5.26458 100 0 94.7222 0 88.8889V11.1111C0 5.27778 5.26458 0 11.0833 0ZM77.5833 16.6667V22.2222H121.917V16.6667H77.5833ZM77.5833 27.7778V33.3333H121.917V27.7778H77.5833ZM77.5833 38.8889V44.4444H116.375V38.8889H77.5833ZM44.3333 60.6111C33.25 60.6111 11.0833 66.6667 11.0833 77.7778V83.3333H77.5833V77.7778C77.5833 66.6667 55.4167 60.6111 44.3333 60.6111ZM44.3333 16.6667C39.9241 16.6667 35.6955 18.4226 32.5777 21.5482C29.4599 24.6738 27.7083 28.9131 27.7083 33.3333C27.7083 37.7536 29.4599 41.9928 32.5777 45.1184C35.6955 48.2441 39.9241 50 44.3333 50C48.7426 50 52.9712 48.2441 56.089 45.1184C59.2068 41.9928 60.9583 37.7536 60.9583 33.3333C60.9583 28.9131 59.2068 24.6738 56.089 21.5482C52.9712 18.4226 48.7426 16.6667 44.3333 16.6667Z" fill="#D9D9D9"/>
</svg>
