<svg width="55" height="41" viewBox="0 0 55 41" fill="none" xmlns="http://www.w3.org/2000/svg">
<path d="M8.59375 0C6.31455 0 4.12869 0.899923 2.51705 2.5018C0.90541 4.10367 0 6.27628 0 8.54167V32.4583C0 34.7237 0.90541 36.8963 2.51705 38.4982C4.12869 40.1001 6.31455 41 8.59375 41H46.4062C48.6855 41 50.8713 40.1001 52.4829 38.4982C54.0946 36.8963 55 34.7237 55 32.4583V8.54167C55 6.27628 54.0946 4.10367 52.4829 2.5018C50.8713 0.899923 48.6855 0 46.4062 0H8.59375ZM3.4375 8.54167C3.4375 7.18243 3.98075 5.87887 4.94773 4.91774C5.91472 3.95662 7.22623 3.41667 8.59375 3.41667H46.4062C47.7738 3.41667 49.0853 3.95662 50.0523 4.91774C51.0193 5.87887 51.5625 7.18243 51.5625 8.54167V32.4583C51.5625 33.8176 51.0193 35.1211 50.0523 36.0823C49.0853 37.0434 47.7738 37.5833 46.4062 37.5833H8.59375C7.22623 37.5833 5.91472 37.0434 4.94773 36.0823C3.98075 35.1211 3.4375 33.8176 3.4375 32.4583V8.54167ZM8.59375 6.83333C8.13791 6.83333 7.70074 7.01332 7.37841 7.33369C7.05608 7.65407 6.875 8.08859 6.875 8.54167C6.875 8.99475 7.05608 9.42927 7.37841 9.74964C7.70074 10.07 8.13791 10.25 8.59375 10.25H25.7812C26.2371 10.25 26.6743 10.07 26.9966 9.74964C27.3189 9.42927 27.5 8.99475 27.5 8.54167C27.5 8.08859 27.3189 7.65407 26.9966 7.33369C26.6743 7.01332 26.2371 6.83333 25.7812 6.83333H8.59375ZM8.59375 13.6667C8.13791 13.6667 7.70074 13.8467 7.37841 14.167C7.05608 14.4874 6.875 14.9219 6.875 15.375C6.875 15.8281 7.05608 16.2626 7.37841 16.583C7.70074 16.9034 8.13791 17.0833 8.59375 17.0833H36.0938C36.5496 17.0833 36.9868 16.9034 37.3091 16.583C37.6314 16.2626 37.8125 15.8281 37.8125 15.375C37.8125 14.9219 37.6314 14.4874 37.3091 14.167C36.9868 13.8467 36.5496 13.6667 36.0938 13.6667H8.59375ZM10.3125 23.9167C9.40082 23.9167 8.52648 24.2766 7.88182 24.9174C7.23716 25.5581 6.875 26.4272 6.875 27.3333V30.75C6.875 31.6562 7.23716 32.5252 7.88182 33.1659C8.52648 33.8067 9.40082 34.1667 10.3125 34.1667H24.0625C24.9742 34.1667 25.8485 33.8067 26.4932 33.1659C27.1378 32.5252 27.5 31.6562 27.5 30.75V27.3333C27.5 26.4272 27.1378 25.5581 26.4932 24.9174C25.8485 24.2766 24.9742 23.9167 24.0625 23.9167H10.3125Z" fill="#333333"/>
</svg>
