<svg width="53" height="53" viewBox="0 0 53 53" fill="none" xmlns="http://www.w3.org/2000/svg">
<path d="M29.5577 39.75C29.5577 40.3547 29.3784 40.9459 29.0424 41.4488C28.7064 41.9516 28.2289 42.3435 27.6701 42.5749C27.1114 42.8064 26.4966 42.8669 25.9035 42.7489C25.3103 42.631 24.7655 42.3397 24.3379 41.9121C23.9103 41.4845 23.619 40.9397 23.5011 40.3465C23.3831 39.7534 23.4436 39.1386 23.6751 38.5799C23.9065 38.0211 24.2984 37.5436 24.8012 37.2076C25.3041 36.8716 25.8953 36.6923 26.5 36.6923C27.311 36.6923 28.0887 37.0145 28.6621 37.5879C29.2355 38.1613 29.5577 38.939 29.5577 39.75ZM26.5 12.2308C20.879 12.2308 16.3077 16.3459 16.3077 21.4038V22.4231C16.3077 22.9637 16.5225 23.4822 16.9048 23.8645C17.287 24.2468 17.8055 24.4615 18.3462 24.4615C18.8868 24.4615 19.4053 24.2468 19.7876 23.8645C20.1699 23.4822 20.3846 22.9637 20.3846 22.4231V21.4038C20.3846 18.601 23.1289 16.3077 26.5 16.3077C29.8711 16.3077 32.6154 18.601 32.6154 21.4038C32.6154 24.2067 29.8711 26.5 26.5 26.5C25.9594 26.5 25.4409 26.7148 25.0586 27.097C24.6763 27.4793 24.4615 27.9978 24.4615 28.5385V30.5769C24.4615 31.1176 24.6763 31.636 25.0586 32.0183C25.4409 32.4006 25.9594 32.6154 26.5 32.6154C27.0406 32.6154 27.5591 32.4006 27.9414 32.0183C28.3237 31.636 28.5385 31.1176 28.5385 30.5769V30.3935C33.1862 29.5399 36.6923 25.8324 36.6923 21.4038C36.6923 16.3459 32.1211 12.2308 26.5 12.2308ZM53 26.5C53 31.7412 51.4458 36.8647 48.5339 41.2226C45.6221 45.5805 41.4834 48.9771 36.6411 50.9828C31.7989 52.9885 26.4706 53.5133 21.3301 52.4908C16.1896 51.4683 11.4678 48.9444 7.76168 45.2383C4.05559 41.5322 1.53171 36.8104 0.509202 31.6699C-0.513306 26.5294 0.011482 21.2011 2.0172 16.3589C4.02293 11.5166 7.4195 7.37791 11.7774 4.46605C16.1353 1.5542 21.2588 0 26.5 0C33.526 0.00741954 40.262 2.80176 45.2301 7.76986C50.1982 12.738 52.9926 19.474 53 26.5ZM48.9231 26.5C48.9231 22.0651 47.608 17.7299 45.1441 14.0424C42.6802 10.3549 39.1782 7.48093 35.0809 5.78378C30.9837 4.08663 26.4751 3.64258 22.1255 4.50778C17.7758 5.37297 13.7804 7.50857 10.6445 10.6445C7.50858 13.7804 5.37299 17.7758 4.50779 22.1255C3.64259 26.4751 4.08664 30.9837 5.78379 35.0809C7.48094 39.1782 10.355 42.6802 14.0424 45.1441C17.7299 47.608 22.0651 48.9231 26.5 48.9231C32.4449 48.9163 38.1444 46.5517 42.3481 42.3481C46.5517 38.1444 48.9163 32.4449 48.9231 26.5Z" fill="#333333"/>
</svg>
