<svg width="46" height="52" viewBox="0 0 46 52" fill="none" xmlns="http://www.w3.org/2000/svg">
<path d="M33.2222 10.4V26C33.2222 28.86 35.5222 31.2 38.3333 31.2H40.8889V49.4C40.8889 50.83 42.0389 52 43.4444 52C44.85 52 46 50.83 46 49.4V2.938C46 1.248 44.4411 2.32458e-07 42.8311 0.39C37.3111 1.768 33.2222 6.526 33.2222 10.4ZM20.4444 18.2H15.3333V2.6C15.3333 1.17 14.1833 0 12.7778 0C11.3722 0 10.2222 1.17 10.2222 2.6V18.2H5.11111V2.6C5.11111 1.17 3.96111 0 2.55556 0C1.15 0 0 1.17 0 2.6V18.2C0 23.946 4.57444 28.6 10.2222 28.6V49.4C10.2222 50.83 11.3722 52 12.7778 52C14.1833 52 15.3333 50.83 15.3333 49.4V28.6C20.9811 28.6 25.5556 23.946 25.5556 18.2V2.6C25.5556 1.17 24.4056 0 23 0C21.5944 0 20.4444 1.17 20.4444 2.6V18.2Z" fill="#333333"/>
</svg>
