<svg width="24" height="18" viewBox="0 0 24 18" fill="none" xmlns="http://www.w3.org/2000/svg">
<path d="M15.3294 0.085083L10.7714 3.01074L11.2334 3.26372L15.2886 0.660755L22.1668 4.55682L18.2216 7.08914L18.4137 7.19433V7.51533L21.5039 5.53177L22.1524 5.89918L18.4137 8.29894V8.84846L21.4434 6.90375L22.1524 7.30547L18.4137 9.70524V10.2548L21.4434 8.31005L22.1524 8.71177L18.4137 11.1115V11.6611L23.1027 8.65121L21.9389 7.99205L23.1027 7.245L21.9389 6.58575L23.1026 5.83871L21.9994 5.21372L23.1169 4.4963L15.3294 0.085083ZM16.7857 2.18227C15.7995 2.67708 14.486 2.7608 13.5611 2.38772L11.7532 3.54821L17.7018 6.80461L19.4165 5.70399C18.7411 5.17074 18.7973 4.37508 19.5544 3.75071L16.7857 2.18227ZM10.6643 3.91402L7.35078 6.07468L13.7075 9.73402L13.7698 9.69418C13.887 9.61871 14.0525 9.51183 14.2499 9.38419C14.6446 9.12905 15.1669 8.79075 15.6878 8.45325C16.4379 7.96716 16.8244 7.71638 17.1838 7.48322L10.6643 3.91402ZM16.0768 3.96886H16.0769C16.2268 3.96978 16.3643 4.00191 16.4669 4.06004C16.5267 4.09386 16.573 4.13559 16.6033 4.18283C16.6336 4.23007 16.6472 4.2819 16.6434 4.33537C16.6396 4.38883 16.6185 4.44287 16.5812 4.49442C16.5439 4.54596 16.4912 4.59398 16.4262 4.63576C16.3611 4.67753 16.2849 4.71222 16.2019 4.73787C16.1189 4.76351 16.0308 4.7796 15.9426 4.78522C15.8543 4.79083 15.7677 4.78586 15.6876 4.77059C15.6075 4.75532 15.5356 4.73005 15.4759 4.69622C15.3553 4.62791 15.2918 4.52888 15.2994 4.42094C15.3071 4.31298 15.3852 4.20495 15.5166 4.1206C15.5913 4.07268 15.6804 4.03415 15.7774 4.00788C15.8744 3.9816 15.9767 3.96827 16.0768 3.96886ZM5.83821 6.17738L0.897354 9.34871L2.00065 9.97369L0.883057 10.6911L2.04687 11.3503L0.883057 12.0974L2.04687 12.7566L0.883057 13.5037L8.67064 17.9149L13.3724 14.8968V14.3475L8.71146 17.3392L1.83331 13.4431L2.50151 13.0142L8.67064 16.5086L13.3724 13.4906V12.9412L8.71146 15.933L1.83331 12.0368L2.50151 11.6079L8.67064 15.1023L13.3724 12.0843V11.535L8.71146 14.5267L1.83331 10.6306L2.45534 10.2312L8.68503 13.76L13.3724 10.7512V10.5144L13.1155 10.3666L8.72567 13.1843L1.8477 9.28819L6.28957 6.43707L5.83817 6.17724L5.83821 6.17738ZM6.79728 6.72957L4.5979 8.14121C5.27337 8.67436 5.21712 9.47002 4.45999 10.0945L7.22881 11.6629C8.21492 11.1681 9.52835 11.0844 10.4532 11.4574L12.6078 10.0744L6.79718 6.72952L6.79728 6.72957ZM17.5699 8.23847C17.1929 8.48302 16.8604 8.69888 16.1467 9.16135C15.6673 9.47211 15.1878 9.78262 14.7081 10.0929C14.5104 10.2206 14.3446 10.3277 14.2263 10.4038C14.2221 10.4066 14.2204 10.4075 14.2162 10.4102V14.4379L17.57 12.1838L17.5699 8.23847ZM8.14854 9.05785C8.29847 9.05879 8.43592 9.09095 8.53854 9.14911C8.65914 9.21743 8.7226 9.31645 8.71495 9.4244C8.7073 9.53235 8.62918 9.64039 8.49776 9.72474C8.36635 9.80907 8.19242 9.86282 8.01424 9.87416C7.83606 9.8855 7.66821 9.8535 7.5476 9.78521C7.427 9.71689 7.36355 9.61787 7.3712 9.50992C7.37885 9.40197 7.45697 9.29393 7.58838 9.20958C7.66302 9.16167 7.75216 9.12315 7.84915 9.09688C7.94615 9.07062 8.04849 9.05729 8.14854 9.05789V9.05785Z" fill="#333333"/>
</svg>
