<svg width="64" height="53" viewBox="0 0 64 53" fill="none" xmlns="http://www.w3.org/2000/svg">
<path d="M8.90016 30.0731V38.609C8.90016 40.8265 10.1246 42.8921 12.0837 43.9553L27.3892 52.2482C29.2259 53.2506 31.4299 53.2506 33.2665 52.2482L48.572 43.9553C50.5312 42.8921 51.7556 40.8265 51.7556 38.609V30.0731L33.2665 40.0974C31.4299 41.0999 29.2259 41.0999 27.3892 40.0974L8.90016 30.0731ZM27.3892 0.729044L1.58412 14.7024C-0.52804 15.8567 -0.52804 18.8944 1.58412 20.0487L27.3892 34.0221C29.2259 35.0245 31.4299 35.0245 33.2665 34.0221L57.8778 20.6866V38.6393C57.8778 40.3101 59.2553 41.677 60.9389 41.677C62.6225 41.677 64 40.3101 64 38.6393V19.1678C64 18.0438 63.3878 17.0414 62.4082 16.4946L33.2665 0.729044C32.3621 0.250381 31.3529 0 30.3279 0C29.3029 0 28.2936 0.250381 27.3892 0.729044Z" fill="#333333"/>
</svg>
