<svg width="54" height="59" viewBox="0 0 54 59" fill="none" xmlns="http://www.w3.org/2000/svg">
<mask id="mask0_19_151" style="mask-type:luminance" maskUnits="userSpaceOnUse" x="0" y="0" width="54" height="59">
<path d="M27.1875 48.6875V32.5625V5.6875V3M5.6875 51.375H40.625L48.6875 43.3125M15.0938 51.375V56.75M37.9375 51.375V56.75" stroke="white" stroke-width="4.41667" stroke-linecap="round" stroke-linejoin="round"/>
<path d="M27.1875 5.6875C13.8293 5.6875 3 16.4832 3 29.7997V32.5625C3 29.2327 5.70766 25.8437 9.04688 25.8437C12.3861 25.8437 15.0938 29.2327 15.0938 32.5625C15.0938 29.2327 17.8014 25.8437 21.1406 25.8437C24.4798 25.8437 27.1875 29.2327 27.1875 32.5625C27.1875 29.2327 29.8952 25.8437 33.2344 25.8437C36.5736 25.8437 39.2812 29.2327 39.2812 32.5625C39.2812 29.2327 41.9889 25.8437 45.3281 25.8437C48.6673 25.8437 51.375 29.2327 51.375 32.5625V29.7997C51.375 16.4832 40.5457 5.6875 27.1875 5.6875Z" fill="#555555" stroke="white" stroke-width="4.41667" stroke-linecap="round" stroke-linejoin="round"/>
<path d="M15.0937 32.5625C15.0937 32.5625 13.0781 25.1719 16.4375 17.7812C19.7982 10.3906 27.1875 5.6875 27.1875 5.6875M27.1875 5.6875C27.1875 5.6875 33.2343 9.04687 36.5937 17.7812C39.9531 26.5156 39.2812 32.5625 39.2812 32.5625M27.1875 5.6875V31.2187" stroke="white" stroke-width="4.41667" stroke-linecap="round" stroke-linejoin="round"/>
<path d="M45.3281 25.8437C41.9889 25.8437 39.2812 29.2327 39.2812 32.5625C39.2812 29.2327 36.5736 25.8437 33.2344 25.8437C29.8952 25.8437 27.1875 29.2327 27.1875 32.5625C27.1875 29.2327 24.4798 25.8437 21.1406 25.8437C17.8014 25.8437 15.0937 29.2327 15.0937 32.5625C15.0937 29.2327 12.3861 25.8437 9.04688 25.8437M16.0787 8.375C19.4072 6.65769 23.1831 5.6875 27.1875 5.6875C31.1919 5.6875 34.9678 6.65769 38.2949 8.375" stroke="white" stroke-width="4.41667" stroke-linecap="round" stroke-linejoin="round"/>
</mask>
<g mask="url(#mask0_19_151)">
<path d="M-5.0625 -2.375H59.4375V62.125H-5.0625V-2.375Z" fill="#333333"/>
</g>
</svg>
