<svg width="57" height="53" viewBox="0 0 57 53" fill="none" xmlns="http://www.w3.org/2000/svg">
<path d="M55.7837 6.88271C55.5077 6.56516 55.1668 6.31047 54.784 6.1358C54.4013 5.96113 53.9855 5.87053 53.5648 5.87011H13.0052L12.4329 2.45371C12.319 1.76837 11.9656 1.14567 11.4357 0.69637C10.9058 0.247075 10.2337 0.000319831 9.53893 0H2.93506C2.15663 0 1.41009 0.309228 0.859658 0.859658C0.309228 1.41009 0 2.15663 0 2.93506C0 3.71348 0.309228 4.46002 0.859658 5.01045C1.41009 5.56088 2.15663 5.87011 2.93506 5.87011H7.05294L12.5121 38.6371L12.6442 39.001L12.8027 39.4442L13.1549 39.9696L13.4338 40.2983L14.0002 40.6799L14.3289 40.8707C14.6703 41.0133 15.0362 41.0881 15.4061 41.0908H47.6947C48.4731 41.0908 49.2196 40.7816 49.7701 40.2311C50.3205 39.6807 50.6297 38.9342 50.6297 38.1557C50.6297 37.3773 50.3205 36.6308 49.7701 36.0803C49.2196 35.5299 48.4731 35.2207 47.6947 35.2207H17.895L17.4078 32.2856H50.6297C51.336 32.2857 52.0186 32.0311 52.5524 31.5686C53.0861 31.106 53.4351 30.4665 53.5354 29.7673L56.4705 9.22195C56.5299 8.8056 56.4994 8.38134 56.3809 7.97781C56.2624 7.57427 56.0588 7.20084 55.7837 6.88271ZM50.1807 11.7402L49.3442 17.6103H38.8895V11.7402H50.1807ZM35.9544 11.7402V17.6103H27.1493V11.7402H35.9544ZM35.9544 20.5454V26.4155H27.1493V20.5454H35.9544ZM24.2142 11.7402V17.6103H15.409L14.9747 17.6984L13.9826 11.7402H24.2142ZM15.4501 20.5454H24.2142V26.4155H16.4275L15.4501 20.5454ZM38.8895 26.4155V20.5454H48.9215L48.085 26.4155H38.8895Z" fill="#333333"/>
<path d="M19.8116 52.831C22.2431 52.831 24.2142 50.8599 24.2142 48.4285C24.2142 45.997 22.2431 44.0259 19.8116 44.0259C17.3802 44.0259 15.4091 45.997 15.4091 48.4285C15.4091 50.8599 17.3802 52.831 19.8116 52.831Z" fill="#333333"/>
<path d="M46.2272 52.831C48.6586 52.831 50.6298 50.8599 50.6298 48.4285C50.6298 45.997 48.6586 44.0259 46.2272 44.0259C43.7957 44.0259 41.8246 45.997 41.8246 48.4285C41.8246 50.8599 43.7957 52.831 46.2272 52.831Z" fill="#333333"/>
</svg>
