<svg width="59" height="54" viewBox="0 0 59 54" fill="none" xmlns="http://www.w3.org/2000/svg">
<path d="M21.6155 0.000110346C16.5468 -0.0267954 11.6123 4.87006 13.865 10.9508H5.36364C3.94111 10.9508 2.57685 11.5177 1.57097 12.5269C0.565096 13.536 0 14.9047 0 16.3319V21.7131C0 22.4267 0.282548 23.111 0.785486 23.6156C1.28842 24.1202 1.97056 24.4036 2.68182 24.4036H26.8182V16.3319H32.1818V24.4036H56.3182C57.0294 24.4036 57.7116 24.1202 58.2145 23.6156C58.7175 23.111 59 22.4267 59 21.7131V16.3319C59 14.9047 58.4349 13.536 57.429 12.5269C56.4231 11.5177 55.0589 10.9508 53.6364 10.9508H45.135C48.2727 2.15257 36.4727 -4.06266 31.0286 3.52477L29.5 5.56961L27.9714 3.47096C26.2818 1.07634 23.9486 0.0270161 21.6155 0.000110346ZM21.4545 5.56961C23.8414 5.56961 25.0482 8.47543 23.3586 10.1705C21.6691 11.8656 18.7727 10.6548 18.7727 8.26018C18.7727 7.5466 19.0553 6.86224 19.5582 6.35766C20.0612 5.85308 20.7433 5.56961 21.4545 5.56961ZM37.5455 5.56961C39.9323 5.56961 41.1391 8.47543 39.4495 10.1705C37.76 11.8656 34.8636 10.6548 34.8636 8.26018C34.8636 7.5466 35.1462 6.86224 35.6491 6.35766C36.1521 5.85308 36.8342 5.56961 37.5455 5.56961ZM2.68182 27.0942V48.6188C2.68182 50.046 3.24691 51.4147 4.25279 52.4239C5.25867 53.4331 6.62293 54 8.04545 54H50.9545C52.3771 54 53.7413 53.4331 54.7472 52.4239C55.7531 51.4147 56.3182 50.046 56.3182 48.6188V27.0942H32.1818V48.6188H26.8182V27.0942H2.68182Z" fill="#333333"/>
</svg>
