<svg width="62" height="53" viewBox="0 0 62 53" fill="none" xmlns="http://www.w3.org/2000/svg">
<path fill-rule="evenodd" clip-rule="evenodd" d="M21.5822 48.2269C12.4589 41.1967 0 29.5835 0 18.6032C0 0.259069 17.05 -6.59036 31 7.57614C44.95 -6.59036 62 0.259069 62 18.6032C62 29.5835 49.538 41.1967 40.4178 48.2269C36.2886 51.4069 34.224 53 31 53C27.776 53 25.7114 51.41 21.5822 48.2269ZM44.95 10.1326C45.5666 10.1326 46.158 10.3789 46.594 10.8174C47.03 11.256 47.275 11.8507 47.275 12.4708V16.3679H51.15C51.7666 16.3679 52.358 16.6142 52.794 17.0527C53.23 17.4912 53.475 18.0859 53.475 18.7061C53.475 19.3262 53.23 19.9209 52.794 20.3595C52.358 20.798 51.7666 21.0443 51.15 21.0443H47.275V24.9413C47.275 25.5615 47.03 26.1562 46.594 26.5947C46.158 27.0332 45.5666 27.2796 44.95 27.2796C44.3334 27.2796 43.742 27.0332 43.306 26.5947C42.87 26.1562 42.625 25.5615 42.625 24.9413V21.0443H38.75C38.1334 21.0443 37.542 20.798 37.106 20.3595C36.67 19.9209 36.425 19.3262 36.425 18.7061C36.425 18.0859 36.67 17.4912 37.106 17.0527C37.542 16.6142 38.1334 16.3679 38.75 16.3679H42.625V12.4708C42.625 11.8507 42.87 11.256 43.306 10.8174C43.742 10.3789 44.3334 10.1326 44.95 10.1326Z" fill="#333333"/>
</svg>
