<svg width="103" height="100" viewBox="0 0 103 100" fill="none" xmlns="http://www.w3.org/2000/svg">
<path d="M70.3415 10C70.3415 4.45 74.8132 0 80.3902 0C85.9673 0 90.439 4.45 90.439 10C90.439 15.55 85.9673 20 80.3902 20C74.8132 20 70.3415 15.55 70.3415 10ZM90.439 100V70H103L90.238 31.85C89.5659 29.8586 88.2835 28.1268 86.5712 26.8981C84.8589 25.6694 82.8027 25.0056 80.6917 25H80.0888C77.9759 24.9981 75.9162 25.659 74.2025 26.8887C72.4887 28.1184 71.208 29.8545 70.5424 31.85L66.2215 44.75C71.6478 47.75 75.3659 53.4 75.3659 60V100H90.439ZM52.7561 47.5C56.9263 47.5 60.2927 44.15 60.2927 40C60.2927 35.85 56.9263 32.5 52.7561 32.5C48.5859 32.5 45.2195 35.85 45.2195 40C45.2195 44.15 48.5859 47.5 52.7561 47.5ZM17.5854 20C23.1624 20 27.6341 15.55 27.6341 10C27.6341 4.45 23.1624 0 17.5854 0C12.0083 0 7.53659 4.45 7.53659 10C7.53659 15.55 12.0083 20 17.5854 20ZM27.6341 100V65H35.1707V35C35.1707 29.5 30.6488 25 25.122 25H10.0488C4.52195 25 0 29.5 0 35V65H7.53659V100H27.6341ZM60.2927 100V80H65.3171V60C65.3171 55.9 61.9005 52.5 57.7805 52.5H47.7317C43.6117 52.5 40.1951 55.9 40.1951 60V80H45.2195V100H60.2927Z" fill="#D9D9D9"/>
</svg>
