<svg width="55" height="55" viewBox="0 0 55 55" fill="none" xmlns="http://www.w3.org/2000/svg">
<circle cx="27.5" cy="27.5" r="27.5" fill="#D9D9D9"/>
<path fill-rule="evenodd" clip-rule="evenodd" d="M37.5 20C37.5 22.6522 36.4464 25.1957 34.5711 27.0711C32.6957 28.9464 30.1522 30 27.5 30C24.8478 30 22.3043 28.9464 20.4289 27.0711C18.5536 25.1957 17.5 22.6522 17.5 20C17.5 17.3478 18.5536 14.8043 20.4289 12.9289C22.3043 11.0536 24.8478 10 27.5 10C30.1522 10 32.6957 11.0536 34.5711 12.9289C36.4464 14.8043 37.5 17.3478 37.5 20ZM32.5 20C32.5 21.3261 31.9732 22.5979 31.0355 23.5355C30.0979 24.4732 28.8261 25 27.5 25C26.1739 25 24.9021 24.4732 23.9645 23.5355C23.0268 22.5979 22.5 21.3261 22.5 20C22.5 18.6739 23.0268 17.4021 23.9645 16.4645C24.9021 15.5268 26.1739 15 27.5 15C28.8261 15 30.0979 15.5268 31.0355 16.4645C31.9732 17.4021 32.5 18.6739 32.5 20Z" fill="#333333"/>
<path fill-rule="evenodd" clip-rule="evenodd" d="M27.5 0C12.3125 0 0 12.3125 0 27.5C0 42.6875 12.3125 55 27.5 55C42.6875 55 55 42.6875 55 27.5C55 12.3125 42.6875 0 27.5 0ZM5 27.5C5 32.725 6.7825 37.535 9.77 41.355C11.8681 38.5997 14.5748 36.3669 17.6786 34.8308C20.7824 33.2947 24.1994 32.497 27.6625 32.5C31.0808 32.4968 34.4548 33.2738 37.5273 34.772C40.5999 36.2701 43.2899 38.4498 45.3925 41.145C47.5586 38.304 49.0171 34.988 49.6472 31.4715C50.2774 27.9549 50.0611 24.3388 49.0162 20.9225C47.9714 17.5061 46.128 14.3876 43.6387 11.8251C41.1494 9.26257 38.0856 7.32965 34.701 6.18627C31.3163 5.04289 27.708 4.72193 24.1746 5.24993C20.6413 5.77794 17.2845 7.13973 14.3819 9.22263C11.4794 11.3055 9.11453 14.0497 7.48307 17.228C5.85162 20.4063 5.00045 23.9274 5 27.5ZM27.5 50C22.3349 50.0078 17.3257 48.2309 13.32 44.97C14.9323 42.6618 17.0783 40.7773 19.5755 39.4767C22.0726 38.1761 24.847 37.498 27.6625 37.5C30.4429 37.4978 33.1837 38.1589 35.6573 39.4286C38.1309 40.6982 40.2659 42.5396 41.885 44.8C37.8482 48.1668 32.7565 50.0074 27.5 50Z" fill="#333333"/>
</svg>
