<svg width="121" height="101" viewBox="0 0 121 101" fill="none" xmlns="http://www.w3.org/2000/svg">
<path d="M16.7181 56.925V73.0825C16.7181 77.28 19.0181 81.19 22.6981 83.2025L51.4481 98.9C54.8981 100.797 59.0381 100.797 62.4881 98.9L91.2381 83.2025C94.9181 81.19 97.2181 77.28 97.2181 73.0825V56.925L62.4881 75.9C59.0381 77.7975 54.8981 77.7975 51.4481 75.9L16.7181 56.925ZM51.4481 1.38L2.97562 27.83C-0.991875 30.015 -0.991875 35.765 2.97562 37.95L51.4481 64.4C54.8981 66.2975 59.0381 66.2975 62.4881 64.4L108.718 39.1575V73.14C108.718 76.3025 111.306 78.89 114.468 78.89C117.631 78.89 120.218 76.3025 120.218 73.14V36.2825C120.218 34.155 119.068 32.2575 117.228 31.2225L62.4881 1.38C60.7893 0.473943 58.8935 0 56.9681 0C55.0428 0 53.147 0.473943 51.4481 1.38Z" fill="#D9D9D9"/>
</svg>
